Coordinates
version=1
nRows=20
nColumns=38
inDegrees=no

Units are S.I. units (second, meters, Newtons, ...)
If the header above contains a line with 'inDegrees', this indicates whether rotational values are in degrees (yes) or radians (no).

endheader
time	pelvis_tilt	pelvis_list	pelvis_rotation	pelvis_tx	pelvis_ty	pelvis_tz	hip_flexion_r	hip_adduction_r	hip_rotation_r	knee_angle_r	ankle_angle_r	subtalar_angle_r	mtp_angle_r	hip_flexion_l	hip_adduction_l	hip_rotation_l	knee_angle_l	ankle_angle_l	subtalar_angle_l	mtp_angle_l	lumbar_extension	lumbar_bending	lumbar_rotation	arm_flex_r	arm_add_r	arm_rot_r	elbow_flex_r	pro_sup_r	wrist_flex_r	wrist_dev_r	arm_flex_l	arm_add_l	arm_rot_l	elbow_flex_l	pro_sup_l	wrist_flex_l	wrist_dev_l
1.32	0.830002	1.37548	-2.5586	0.859849	0.169875	0.907411	-0.24896	-0.330496	-0.411997	0.776233	0.135996	0	0	0.261287	0.153712	-0.363134	0.280022	-0.0430932	0	0	0.0965707	-0.149734	0.265902	0.130039	-0.372042	-0.481346	1.7489	1.5708	0	0	0.242415	-0.349233	-0.0897885	1.86778	0.768659	0	0
1.33	0.819054	1.36514	-2.5426	0.861386	0.156974	0.909336	-0.22604	-0.35256	-0.391404	0.840244	0.0603452	0	0	0.248797	0.16183	-0.362499	0.301825	-0.0316295	0	0	0.0905821	-0.158532	0.259195	0.125736	-0.371564	-0.477932	1.75034	1.5708	0	0	0.240605	-0.351503	-0.08921	1.86965	0.761535	0	0
1.34	0.820074	1.36062	-2.53587	0.863463	0.144372	0.910675	-0.193072	-0.368572	-0.365412	0.906607	-0.0177198	0	0	0.239919	0.168889	-0.358919	0.318192	-0.0216458	0	0	0.0894279	-0.162859	0.249552	0.12132	-0.374746	-0.472845	1.75292	1.5708	0	0	0.239339	-0.353375	-0.0889365	1.86993	0.758899	0	0
1.35	0.814401	1.35748	-2.52233	0.865587	0.131978	0.911929	-0.157954	-0.380832	-0.337464	0.972361	-0.0940335	0	0	0.226825	0.176465	-0.352837	0.326283	-0.0155645	0	0	0.0873093	-0.164538	0.239061	0.118436	-0.380081	-0.466929	1.75622	1.5708	0	0	0.239603	-0.355704	-0.0890415	1.86902	0.762	0	0
1.36	0.798002	1.35427	-2.49853	0.867617	0.11973	0.913288	-0.123429	-0.389236	-0.308242	1.03523	-0.166954	0	0	0.208076	0.184163	-0.345939	0.327091	-0.0130715	0	0	0.0825238	-0.164464	0.228073	0.117852	-0.386128	-0.46129	1.75966	1.5708	0	0	0.239907	-0.35922	-0.0886027	1.86968	0.762569	0	0
1.37	0.776389	1.35057	-2.47005	0.869477	0.107826	0.914774	-0.0882703	-0.394563	-0.278183	1.09434	-0.241669	0	0	0.185772	0.192099	-0.337115	0.322921	-0.01259	0	0	0.0753751	-0.164131	0.216808	0.119563	-0.391524	-0.455354	1.76245	1.5708	0	0	0.241656	-0.363526	-0.0881999	1.87046	0.763273	0	0
1.38	0.752505	1.34497	-2.43985	0.871068	0.0962982	0.916477	-0.0553255	-0.398768	-0.249814	1.14596	-0.311603	0	0	0.160593	0.201179	-0.325535	0.316101	-0.0140369	0	0	0.0652369	-0.16557	0.205988	0.123088	-0.394772	-0.451159	1.76437	1.5708	0	0	0.244324	-0.36923	-0.0854523	1.87347	0.759052	0	0
1.39	0.730217	1.33809	-2.41134	0.872383	0.0850764	0.918279	-0.0262119	-0.401654	-0.223166	1.18846	-0.361354	0	0	0.13448	0.210855	-0.311021	0.308563	-0.0146767	0	0	0.0531908	-0.168931	0.195523	0.127379	-0.395362	-0.449568	1.76655	1.5708	0	0	0.249338	-0.37538	-0.0821208	1.87741	0.750435	0	0
1.4	0.709825	1.33151	-2.38511	0.873426	0.0740192	0.920129	0.000813273	-0.402137	-0.198235	1.22557	-0.37275	0	0	0.108521	0.219258	-0.295184	0.301025	-0.01269	0	0	0.0412387	-0.172458	0.185882	0.13148	-0.393494	-0.450787	1.76886	1.5708	0	0	0.255988	-0.380965	-0.0790484	1.88115	0.740788	0	0
1.41	0.677839	1.3317	-2.35086	0.873053	0.063612	0.9221	0.0420776	-0.383205	-0.170474	1.28772	-0.274352	0	0	0.087561	0.215655	-0.28483	0.298118	-0.00545681	0	0	0.0321304	-0.169638	0.179292	0.135678	-0.387235	-0.454248	1.7691	1.5708	0	0	0.262756	-0.386528	-0.0760974	1.88351	0.727217	0	0
1.42	0.67925	1.32509	-2.34482	0.874889	0.0519567	0.923948	0.0616303	-0.395142	-0.150375	1.30211	-0.275975	0	0	0.060226	0.228981	-0.265262	0.283143	-0.00390913	0	0	0.026262	-0.174922	0.169785	0.13641	-0.384455	-0.458134	1.772	1.5708	0	0	0.266396	-0.389029	-0.0737124	1.88639	0.722887	0	0
1.43	0.663286	1.32425	-2.32502	0.875508	0.0409813	0.92606	0.0926357	-0.387603	-0.129133	1.33264	-0.21563	0	0	0.0345483	0.231269	-0.253308	0.268423	-0.00131355	0	0	0.0213678	-0.173239	0.162558	0.138074	-0.37958	-0.461452	1.77243	1.5708	0	0	0.268848	-0.390634	-0.0731875	1.88835	0.716111	0	0
1.44	0.645833	1.32554	-2.30455	0.876156	0.0301906	0.928224	0.124376	-0.377456	-0.110195	1.35508	-0.164237	0	0	0.00982439	0.231131	-0.244277	0.252767	0.000909605	0	0	0.0181555	-0.168939	0.155825	0.13982	-0.376291	-0.463285	1.7712	1.5708	0	0	0.269942	-0.390112	-0.0743745	1.88921	0.713074	0	0
1.45	0.625676	1.32822	-2.28232	0.87687	0.0196643	0.9304	0.1558	-0.366002	-0.0934694	1.36975	-0.125447	0	0	-0.0143127	0.229182	-0.238221	0.236133	0.00351722	0	0	0.0154901	-0.162501	0.149878	0.141812	-0.375189	-0.463864	1.76924	1.5708	0	0	0.270514	-0.388292	-0.0759655	1.88949	0.711728	0	0
1.46	0.604588	1.33211	-2.25925	0.877633	0.00944942	0.932442	0.186835	-0.35384	-0.079543	1.37785	-0.0947737	0	0	-0.0364593	0.225843	-0.233811	0.220416	0.00596733	0	0	0.0129936	-0.15494	0.143691	0.144472	-0.375965	-0.463034	1.7673	1.5708	0	0	0.270734	-0.386417	-0.077688	1.89059	0.711127	0	0
1.47	0.583775	1.33699	-2.2357	0.878424	-0.000450184	0.934287	0.217768	-0.341124	-0.0686716	1.3807	-0.0689485	0	0	-0.055668	0.221432	-0.2294	0.207211	0.00776806	0	0	0.0105807	-0.147041	0.137139	0.147436	-0.37856	-0.461568	1.7661	1.5708	0	0	0.27196	-0.385046	-0.0785089	1.89212	0.710621	0	0
1.48	0.561001	1.34221	-2.20849	0.879297	-0.0100796	0.936018	0.246146	-0.328648	-0.0630523	1.37823	-0.0445491	0	0	-0.0728656	0.215984	-0.223381	0.196503	0.00887135	0	0	0.00730366	-0.139002	0.129771	0.150083	-0.382464	-0.460384	1.76606	1.5708	0	0	0.275085	-0.383978	-0.0779257	1.89347	0.710588	0	0
1.49	0.536037	1.34771	-2.17706	0.880294	-0.0194523	0.937649	0.271478	-0.317334	-0.063756	1.3702	-0.0201689	0	0	-0.0879427	0.209527	-0.216324	0.188284	0.0107436	0	0	0.00320021	-0.130823	0.121222	0.152388	-0.386887	-0.460161	1.76705	1.5708	0	0	0.280071	-0.383051	-0.0759431	1.89425	0.711188	0	0
1.5	0.509858	1.35316	-2.14258	0.881422	-0.0286247	0.939154	0.294333	-0.307639	-0.0695236	1.35715	0.00519465	0	0	-0.101735	0.202677	-0.208059	0.181444	0.0122109	0	0	-0.00171126	-0.122701	0.111261	0.15474	-0.391363	-0.460854	1.76875	1.5708	0	0	0.286292	-0.38257	-0.0729052	1.89469	0.711916	0	0
1.51	0.480321	1.35858	-2.10344	0.882618	-0.0376271	0.940567	0.314619	-0.298644	-0.07909	1.33901	0.032283	0	0	-0.114985	0.195012	-0.198913	0.175408	0.0130403	0	0	-0.00744569	-0.114037	0.100151	0.157354	-0.395378	-0.46238	1.77098	1.5708	0	0	0.293024	-0.382243	-0.0694703	1.89531	0.712107	0	0
